<mxfile host="app.diagrams.net" modified="2023-10-16T01:50:07.370Z" agent="Mozilla/5.0 (Windows NT 10.0; Win64; x64) AppleWebKit/537.36 (KHTML, like Gecko) Chrome/117.0.0.0 Safari/537.36" etag="NpSOagozDOnfT5Sv9A0_" version="22.0.4" type="device">
  <diagram name="페이지-1" id="s0CB_pDRQbe32WmI6tte">
    <mxGraphModel dx="794" dy="478" grid="1" gridSize="10" guides="1" tooltips="1" connect="1" arrows="1" fold="1" page="1" pageScale="1" pageWidth="827" pageHeight="1169" math="0" shadow="0">
      <root>
        <mxCell id="0" />
        <mxCell id="1" parent="0" />
        <mxCell id="Dq2hND3aWHUpKWWsGMOl-39" value="" style="rounded=0;whiteSpace=wrap;html=1;fillColor=#fff2cc;strokeColor=#d6b656;" vertex="1" parent="1">
          <mxGeometry x="520" y="1480" width="80" height="65" as="geometry" />
        </mxCell>
        <mxCell id="Dq2hND3aWHUpKWWsGMOl-37" value="" style="rounded=1;whiteSpace=wrap;html=1;fillColor=#dae8fc;strokeColor=#6c8ebf;" vertex="1" parent="1">
          <mxGeometry x="440" y="1560" width="380" height="380" as="geometry" />
        </mxCell>
        <mxCell id="s4MbAgm935jzAfVjTvzh-29" style="edgeStyle=orthogonalEdgeStyle;rounded=0;orthogonalLoop=1;jettySize=auto;html=1;exitX=1;exitY=0.75;exitDx=0;exitDy=0;entryX=0;entryY=0.5;entryDx=0;entryDy=0;" parent="1" source="s4MbAgm935jzAfVjTvzh-1" target="s4MbAgm935jzAfVjTvzh-28" edge="1">
          <mxGeometry relative="1" as="geometry" />
        </mxCell>
        <mxCell id="s4MbAgm935jzAfVjTvzh-1" value="" style="rounded=0;whiteSpace=wrap;html=1;" parent="1" vertex="1">
          <mxGeometry x="40" y="20" width="390" height="560" as="geometry" />
        </mxCell>
        <mxCell id="s4MbAgm935jzAfVjTvzh-6" value="" style="edgeStyle=orthogonalEdgeStyle;rounded=0;orthogonalLoop=1;jettySize=auto;html=1;" parent="1" source="s4MbAgm935jzAfVjTvzh-2" target="s4MbAgm935jzAfVjTvzh-5" edge="1">
          <mxGeometry relative="1" as="geometry" />
        </mxCell>
        <mxCell id="s4MbAgm935jzAfVjTvzh-2" value="" style="rounded=0;whiteSpace=wrap;html=1;" parent="1" vertex="1">
          <mxGeometry x="60" y="40" width="360" height="70" as="geometry" />
        </mxCell>
        <mxCell id="s4MbAgm935jzAfVjTvzh-3" value="오늘은" style="text;html=1;strokeColor=none;fillColor=none;align=center;verticalAlign=middle;whiteSpace=wrap;rounded=0;" parent="1" vertex="1">
          <mxGeometry x="70" y="50" width="60" height="30" as="geometry" />
        </mxCell>
        <mxCell id="s4MbAgm935jzAfVjTvzh-4" value="&quot;현재 날짜&quot;" style="text;html=1;strokeColor=none;fillColor=none;align=center;verticalAlign=middle;whiteSpace=wrap;rounded=0;" parent="1" vertex="1">
          <mxGeometry x="80" y="70" width="140" height="30" as="geometry" />
        </mxCell>
        <mxCell id="s4MbAgm935jzAfVjTvzh-5" value="&amp;lt;Header /&amp;gt;" style="whiteSpace=wrap;html=1;rounded=0;" parent="1" vertex="1">
          <mxGeometry x="490" y="45" width="120" height="60" as="geometry" />
        </mxCell>
        <mxCell id="s4MbAgm935jzAfVjTvzh-13" value="" style="edgeStyle=orthogonalEdgeStyle;rounded=0;orthogonalLoop=1;jettySize=auto;html=1;" parent="1" source="s4MbAgm935jzAfVjTvzh-7" target="s4MbAgm935jzAfVjTvzh-12" edge="1">
          <mxGeometry relative="1" as="geometry" />
        </mxCell>
        <mxCell id="s4MbAgm935jzAfVjTvzh-7" value="" style="rounded=0;whiteSpace=wrap;html=1;" parent="1" vertex="1">
          <mxGeometry x="60" y="130" width="360" height="60" as="geometry" />
        </mxCell>
        <mxCell id="s4MbAgm935jzAfVjTvzh-8" value="새로운 할 일 작성하기" style="text;html=1;strokeColor=none;fillColor=none;align=center;verticalAlign=middle;whiteSpace=wrap;rounded=0;" parent="1" vertex="1">
          <mxGeometry x="60" y="130" width="150" height="30" as="geometry" />
        </mxCell>
        <mxCell id="s4MbAgm935jzAfVjTvzh-9" value="" style="rounded=1;whiteSpace=wrap;html=1;" parent="1" vertex="1">
          <mxGeometry x="80" y="160" width="220" height="20" as="geometry" />
        </mxCell>
        <mxCell id="s4MbAgm935jzAfVjTvzh-10" value="추가" style="rounded=1;whiteSpace=wrap;html=1;" parent="1" vertex="1">
          <mxGeometry x="310" y="150" width="60" height="30" as="geometry" />
        </mxCell>
        <mxCell id="s4MbAgm935jzAfVjTvzh-12" value="&amp;lt;TodoEditor /&amp;gt;" style="whiteSpace=wrap;html=1;rounded=0;" parent="1" vertex="1">
          <mxGeometry x="490" y="130" width="120" height="60" as="geometry" />
        </mxCell>
        <mxCell id="s4MbAgm935jzAfVjTvzh-18" value="" style="edgeStyle=orthogonalEdgeStyle;rounded=0;orthogonalLoop=1;jettySize=auto;html=1;" parent="1" source="s4MbAgm935jzAfVjTvzh-14" target="s4MbAgm935jzAfVjTvzh-17" edge="1">
          <mxGeometry relative="1" as="geometry" />
        </mxCell>
        <mxCell id="s4MbAgm935jzAfVjTvzh-14" value="" style="whiteSpace=wrap;html=1;aspect=fixed;" parent="1" vertex="1">
          <mxGeometry x="60" y="210" width="360" height="360" as="geometry" />
        </mxCell>
        <mxCell id="s4MbAgm935jzAfVjTvzh-15" value="해야 할 일 목록" style="text;html=1;strokeColor=none;fillColor=none;align=center;verticalAlign=middle;whiteSpace=wrap;rounded=0;" parent="1" vertex="1">
          <mxGeometry x="40" y="220" width="160" height="30" as="geometry" />
        </mxCell>
        <mxCell id="s4MbAgm935jzAfVjTvzh-16" value="" style="rounded=1;whiteSpace=wrap;html=1;" parent="1" vertex="1">
          <mxGeometry x="70" y="290" width="340" height="260" as="geometry" />
        </mxCell>
        <mxCell id="s4MbAgm935jzAfVjTvzh-17" value="&amp;lt;TodoList /&amp;gt;" style="whiteSpace=wrap;html=1;" parent="1" vertex="1">
          <mxGeometry x="490" y="360" width="120" height="60" as="geometry" />
        </mxCell>
        <mxCell id="s4MbAgm935jzAfVjTvzh-27" style="edgeStyle=orthogonalEdgeStyle;rounded=0;orthogonalLoop=1;jettySize=auto;html=1;exitX=1;exitY=0.5;exitDx=0;exitDy=0;entryX=0;entryY=0.5;entryDx=0;entryDy=0;" parent="1" source="s4MbAgm935jzAfVjTvzh-19" target="s4MbAgm935jzAfVjTvzh-26" edge="1">
          <mxGeometry relative="1" as="geometry" />
        </mxCell>
        <mxCell id="s4MbAgm935jzAfVjTvzh-19" value="" style="rounded=1;whiteSpace=wrap;html=1;" parent="1" vertex="1">
          <mxGeometry x="90" y="310" width="300" height="60" as="geometry" />
        </mxCell>
        <mxCell id="s4MbAgm935jzAfVjTvzh-20" value="" style="rounded=0;whiteSpace=wrap;html=1;" parent="1" vertex="1">
          <mxGeometry x="100" y="330" width="20" height="20" as="geometry" />
        </mxCell>
        <mxCell id="s4MbAgm935jzAfVjTvzh-21" value="빨래 개기" style="text;html=1;strokeColor=none;fillColor=none;align=center;verticalAlign=middle;whiteSpace=wrap;rounded=0;" parent="1" vertex="1">
          <mxGeometry x="130" y="325" width="100" height="30" as="geometry" />
        </mxCell>
        <mxCell id="s4MbAgm935jzAfVjTvzh-22" value="2023.10.12" style="text;html=1;strokeColor=none;fillColor=none;align=center;verticalAlign=middle;whiteSpace=wrap;rounded=0;" parent="1" vertex="1">
          <mxGeometry x="250" y="325" width="60" height="30" as="geometry" />
        </mxCell>
        <mxCell id="s4MbAgm935jzAfVjTvzh-23" value="삭제" style="rounded=1;whiteSpace=wrap;html=1;" parent="1" vertex="1">
          <mxGeometry x="330" y="325" width="40" height="30" as="geometry" />
        </mxCell>
        <mxCell id="s4MbAgm935jzAfVjTvzh-26" value="&amp;lt;TodoItem /&amp;gt;" style="rounded=0;whiteSpace=wrap;html=1;" parent="1" vertex="1">
          <mxGeometry x="490" y="250" width="120" height="60" as="geometry" />
        </mxCell>
        <mxCell id="s4MbAgm935jzAfVjTvzh-28" value="&amp;lt;App /&amp;gt;" style="rounded=0;whiteSpace=wrap;html=1;" parent="1" vertex="1">
          <mxGeometry x="490" y="480" width="120" height="60" as="geometry" />
        </mxCell>
        <mxCell id="s4MbAgm935jzAfVjTvzh-30" value="검색" style="rounded=0;whiteSpace=wrap;html=1;" parent="1" vertex="1">
          <mxGeometry x="150" y="250" width="160" height="20" as="geometry" />
        </mxCell>
        <mxCell id="s4MbAgm935jzAfVjTvzh-31" value="Actor" style="shape=umlActor;verticalLabelPosition=bottom;verticalAlign=top;html=1;outlineConnect=0;" parent="1" vertex="1">
          <mxGeometry x="50" y="650" width="20" height="40" as="geometry" />
        </mxCell>
        <mxCell id="s4MbAgm935jzAfVjTvzh-32" value="" style="endArrow=none;dashed=1;html=1;rounded=0;" parent="1" edge="1">
          <mxGeometry width="50" height="50" relative="1" as="geometry">
            <mxPoint x="50" y="980" as="sourcePoint" />
            <mxPoint x="50" y="730" as="targetPoint" />
          </mxGeometry>
        </mxCell>
        <mxCell id="s4MbAgm935jzAfVjTvzh-33" value="" style="endArrow=none;dashed=1;html=1;rounded=0;" parent="1" edge="1">
          <mxGeometry width="50" height="50" relative="1" as="geometry">
            <mxPoint x="200" y="980" as="sourcePoint" />
            <mxPoint x="200" y="720" as="targetPoint" />
          </mxGeometry>
        </mxCell>
        <mxCell id="s4MbAgm935jzAfVjTvzh-34" value="TodoEditor" style="text;html=1;strokeColor=none;fillColor=none;align=center;verticalAlign=middle;whiteSpace=wrap;rounded=0;" parent="1" vertex="1">
          <mxGeometry x="170" y="690" width="60" height="30" as="geometry" />
        </mxCell>
        <mxCell id="s4MbAgm935jzAfVjTvzh-37" value="" style="endArrow=classic;html=1;rounded=0;" parent="1" source="s4MbAgm935jzAfVjTvzh-35" edge="1">
          <mxGeometry width="50" height="50" relative="1" as="geometry">
            <mxPoint x="50" y="760" as="sourcePoint" />
            <mxPoint x="200" y="760" as="targetPoint" />
          </mxGeometry>
        </mxCell>
        <mxCell id="s4MbAgm935jzAfVjTvzh-38" value="" style="endArrow=classic;html=1;rounded=0;" parent="1" target="s4MbAgm935jzAfVjTvzh-35" edge="1">
          <mxGeometry width="50" height="50" relative="1" as="geometry">
            <mxPoint x="50" y="760" as="sourcePoint" />
            <mxPoint x="200" y="760" as="targetPoint" />
          </mxGeometry>
        </mxCell>
        <mxCell id="s4MbAgm935jzAfVjTvzh-35" value="할일입력" style="rounded=1;whiteSpace=wrap;html=1;" parent="1" vertex="1">
          <mxGeometry x="92.5" y="750" width="85" height="30" as="geometry" />
        </mxCell>
        <mxCell id="s4MbAgm935jzAfVjTvzh-40" value="" style="endArrow=classic;html=1;rounded=0;" parent="1" edge="1">
          <mxGeometry width="50" height="50" relative="1" as="geometry">
            <mxPoint x="50" y="830" as="sourcePoint" />
            <mxPoint x="200" y="830" as="targetPoint" />
          </mxGeometry>
        </mxCell>
        <mxCell id="s4MbAgm935jzAfVjTvzh-39" value="추가 버튼 클릭" style="rounded=1;whiteSpace=wrap;html=1;" parent="1" vertex="1">
          <mxGeometry x="92.5" y="810" width="85" height="30" as="geometry" />
        </mxCell>
        <mxCell id="s4MbAgm935jzAfVjTvzh-41" value="" style="endArrow=none;dashed=1;html=1;rounded=0;" parent="1" edge="1">
          <mxGeometry width="50" height="50" relative="1" as="geometry">
            <mxPoint x="370" y="980" as="sourcePoint" />
            <mxPoint x="370" y="720" as="targetPoint" />
          </mxGeometry>
        </mxCell>
        <mxCell id="s4MbAgm935jzAfVjTvzh-42" value="App" style="text;html=1;strokeColor=none;fillColor=none;align=center;verticalAlign=middle;whiteSpace=wrap;rounded=0;" parent="1" vertex="1">
          <mxGeometry x="340" y="690" width="60" height="30" as="geometry" />
        </mxCell>
        <mxCell id="s4MbAgm935jzAfVjTvzh-44" value="" style="endArrow=classic;html=1;rounded=0;" parent="1" edge="1">
          <mxGeometry width="50" height="50" relative="1" as="geometry">
            <mxPoint x="200" y="850" as="sourcePoint" />
            <mxPoint x="370" y="840" as="targetPoint" />
          </mxGeometry>
        </mxCell>
        <mxCell id="s4MbAgm935jzAfVjTvzh-43" value="데이터 추가 함수 호출" style="rounded=1;whiteSpace=wrap;html=1;" parent="1" vertex="1">
          <mxGeometry x="230" y="830" width="120" height="35" as="geometry" />
        </mxCell>
        <mxCell id="s4MbAgm935jzAfVjTvzh-45" value="mockUp&lt;br&gt;Todos" style="shape=cylinder3;whiteSpace=wrap;html=1;boundedLbl=1;backgroundOutline=1;size=15;" parent="1" vertex="1">
          <mxGeometry x="550" y="800" width="60" height="80" as="geometry" />
        </mxCell>
        <mxCell id="s4MbAgm935jzAfVjTvzh-47" value="" style="endArrow=classic;html=1;rounded=0;entryX=-0.094;entryY=0.778;entryDx=0;entryDy=0;entryPerimeter=0;" parent="1" target="s4MbAgm935jzAfVjTvzh-45" edge="1">
          <mxGeometry width="50" height="50" relative="1" as="geometry">
            <mxPoint x="370" y="860" as="sourcePoint" />
            <mxPoint x="440" y="900" as="targetPoint" />
          </mxGeometry>
        </mxCell>
        <mxCell id="s4MbAgm935jzAfVjTvzh-46" value="데이터 추가" style="rounded=0;whiteSpace=wrap;html=1;" parent="1" vertex="1">
          <mxGeometry x="410" y="840" width="120" height="40" as="geometry" />
        </mxCell>
        <mxCell id="s4MbAgm935jzAfVjTvzh-51" value="Input 초기화" style="rounded=1;whiteSpace=wrap;html=1;" parent="1" vertex="1">
          <mxGeometry x="235" y="900" width="90" height="30" as="geometry" />
        </mxCell>
        <mxCell id="s4MbAgm935jzAfVjTvzh-52" value="" style="endArrow=classic;html=1;rounded=0;exitX=0;exitY=0.75;exitDx=0;exitDy=0;" parent="1" source="s4MbAgm935jzAfVjTvzh-51" edge="1">
          <mxGeometry width="50" height="50" relative="1" as="geometry">
            <mxPoint x="220" y="1020" as="sourcePoint" />
            <mxPoint x="200" y="920" as="targetPoint" />
          </mxGeometry>
        </mxCell>
        <mxCell id="Dq2hND3aWHUpKWWsGMOl-10" style="edgeStyle=orthogonalEdgeStyle;rounded=0;orthogonalLoop=1;jettySize=auto;html=1;exitX=0.5;exitY=1;exitDx=0;exitDy=0;entryX=0.5;entryY=0;entryDx=0;entryDy=0;" edge="1" parent="1" source="Dq2hND3aWHUpKWWsGMOl-1" target="Dq2hND3aWHUpKWWsGMOl-3">
          <mxGeometry relative="1" as="geometry" />
        </mxCell>
        <mxCell id="Dq2hND3aWHUpKWWsGMOl-1" value="App" style="rounded=1;whiteSpace=wrap;html=1;" vertex="1" parent="1">
          <mxGeometry x="355" y="1010" width="120" height="60" as="geometry" />
        </mxCell>
        <mxCell id="Dq2hND3aWHUpKWWsGMOl-2" value="Header" style="rounded=1;whiteSpace=wrap;html=1;" vertex="1" parent="1">
          <mxGeometry x="130" y="1130" width="120" height="60" as="geometry" />
        </mxCell>
        <mxCell id="Dq2hND3aWHUpKWWsGMOl-11" style="edgeStyle=orthogonalEdgeStyle;rounded=0;orthogonalLoop=1;jettySize=auto;html=1;exitX=0.5;exitY=1;exitDx=0;exitDy=0;entryX=0.25;entryY=0;entryDx=0;entryDy=0;" edge="1" parent="1" source="Dq2hND3aWHUpKWWsGMOl-3" target="Dq2hND3aWHUpKWWsGMOl-7">
          <mxGeometry relative="1" as="geometry" />
        </mxCell>
        <mxCell id="Dq2hND3aWHUpKWWsGMOl-3" value="TodoList" style="rounded=1;whiteSpace=wrap;html=1;" vertex="1" parent="1">
          <mxGeometry x="600" y="1130" width="120" height="60" as="geometry" />
        </mxCell>
        <mxCell id="Dq2hND3aWHUpKWWsGMOl-4" value="TodoEditor" style="rounded=1;whiteSpace=wrap;html=1;" vertex="1" parent="1">
          <mxGeometry x="354" y="1169" width="120" height="60" as="geometry" />
        </mxCell>
        <mxCell id="Dq2hND3aWHUpKWWsGMOl-5" value="" style="rounded=1;whiteSpace=wrap;html=1;" vertex="1" parent="1">
          <mxGeometry x="570" y="1320" width="120" height="60" as="geometry" />
        </mxCell>
        <mxCell id="Dq2hND3aWHUpKWWsGMOl-6" value="" style="rounded=1;whiteSpace=wrap;html=1;" vertex="1" parent="1">
          <mxGeometry x="600" y="1300" width="120" height="60" as="geometry" />
        </mxCell>
        <mxCell id="Dq2hND3aWHUpKWWsGMOl-7" value="TodoItem" style="rounded=1;whiteSpace=wrap;html=1;" vertex="1" parent="1">
          <mxGeometry x="630" y="1280" width="120" height="60" as="geometry" />
        </mxCell>
        <mxCell id="Dq2hND3aWHUpKWWsGMOl-12" value="onCreate" style="text;html=1;strokeColor=none;fillColor=none;align=center;verticalAlign=middle;whiteSpace=wrap;rounded=0;" vertex="1" parent="1">
          <mxGeometry x="350" y="1120" width="60" height="30" as="geometry" />
        </mxCell>
        <mxCell id="Dq2hND3aWHUpKWWsGMOl-13" value="todos&lt;br&gt;onUpdate&lt;br&gt;onDelete" style="text;html=1;strokeColor=none;fillColor=none;align=center;verticalAlign=middle;whiteSpace=wrap;rounded=0;" vertex="1" parent="1">
          <mxGeometry x="670" y="1080" width="60" height="30" as="geometry" />
        </mxCell>
        <mxCell id="Dq2hND3aWHUpKWWsGMOl-14" value="&lt;br&gt;onUpdate&lt;br&gt;onDelete" style="text;html=1;strokeColor=none;fillColor=none;align=center;verticalAlign=middle;whiteSpace=wrap;rounded=0;" vertex="1" parent="1">
          <mxGeometry x="670" y="1220" width="60" height="30" as="geometry" />
        </mxCell>
        <mxCell id="Dq2hND3aWHUpKWWsGMOl-32" style="edgeStyle=orthogonalEdgeStyle;rounded=0;orthogonalLoop=1;jettySize=auto;html=1;exitX=0.5;exitY=1;exitDx=0;exitDy=0;entryX=0.5;entryY=0;entryDx=0;entryDy=0;" edge="1" parent="1" source="Dq2hND3aWHUpKWWsGMOl-17" target="Dq2hND3aWHUpKWWsGMOl-18">
          <mxGeometry relative="1" as="geometry" />
        </mxCell>
        <mxCell id="Dq2hND3aWHUpKWWsGMOl-33" style="edgeStyle=orthogonalEdgeStyle;rounded=0;orthogonalLoop=1;jettySize=auto;html=1;exitX=0.5;exitY=1;exitDx=0;exitDy=0;" edge="1" parent="1" source="Dq2hND3aWHUpKWWsGMOl-17" target="Dq2hND3aWHUpKWWsGMOl-31">
          <mxGeometry relative="1" as="geometry" />
        </mxCell>
        <mxCell id="Dq2hND3aWHUpKWWsGMOl-17" value="App" style="rounded=1;whiteSpace=wrap;html=1;" vertex="1" parent="1">
          <mxGeometry x="375" y="1460" width="120" height="60" as="geometry" />
        </mxCell>
        <mxCell id="Dq2hND3aWHUpKWWsGMOl-18" value="Header" style="rounded=1;whiteSpace=wrap;html=1;" vertex="1" parent="1">
          <mxGeometry x="150" y="1580" width="120" height="60" as="geometry" />
        </mxCell>
        <mxCell id="Dq2hND3aWHUpKWWsGMOl-19" style="edgeStyle=orthogonalEdgeStyle;rounded=0;orthogonalLoop=1;jettySize=auto;html=1;exitX=0.5;exitY=1;exitDx=0;exitDy=0;entryX=0.25;entryY=0;entryDx=0;entryDy=0;" edge="1" parent="1" source="Dq2hND3aWHUpKWWsGMOl-20" target="Dq2hND3aWHUpKWWsGMOl-24">
          <mxGeometry relative="1" as="geometry" />
        </mxCell>
        <mxCell id="Dq2hND3aWHUpKWWsGMOl-20" value="TodoList" style="rounded=1;whiteSpace=wrap;html=1;" vertex="1" parent="1">
          <mxGeometry x="670" y="1711" width="120" height="60" as="geometry" />
        </mxCell>
        <mxCell id="Dq2hND3aWHUpKWWsGMOl-21" value="TodoEditor" style="rounded=1;whiteSpace=wrap;html=1;" vertex="1" parent="1">
          <mxGeometry x="460" y="1700" width="120" height="60" as="geometry" />
        </mxCell>
        <mxCell id="Dq2hND3aWHUpKWWsGMOl-22" value="" style="rounded=1;whiteSpace=wrap;html=1;" vertex="1" parent="1">
          <mxGeometry x="610" y="1870" width="120" height="60" as="geometry" />
        </mxCell>
        <mxCell id="Dq2hND3aWHUpKWWsGMOl-23" value="" style="rounded=1;whiteSpace=wrap;html=1;" vertex="1" parent="1">
          <mxGeometry x="660" y="1850" width="120" height="60" as="geometry" />
        </mxCell>
        <mxCell id="Dq2hND3aWHUpKWWsGMOl-24" value="TodoItem" style="rounded=1;whiteSpace=wrap;html=1;" vertex="1" parent="1">
          <mxGeometry x="700" y="1831" width="120" height="60" as="geometry" />
        </mxCell>
        <mxCell id="Dq2hND3aWHUpKWWsGMOl-25" value="onCreate" style="text;html=1;strokeColor=none;fillColor=none;align=center;verticalAlign=middle;whiteSpace=wrap;rounded=0;" vertex="1" parent="1">
          <mxGeometry x="500" y="1630" width="60" height="30" as="geometry" />
        </mxCell>
        <mxCell id="Dq2hND3aWHUpKWWsGMOl-26" value="todos" style="text;html=1;strokeColor=none;fillColor=none;align=center;verticalAlign=middle;whiteSpace=wrap;rounded=0;" vertex="1" parent="1">
          <mxGeometry x="730" y="1650" width="60" height="30" as="geometry" />
        </mxCell>
        <mxCell id="Dq2hND3aWHUpKWWsGMOl-27" value="&lt;br&gt;onUpdate&lt;br&gt;onDelete" style="text;html=1;strokeColor=none;fillColor=none;align=center;verticalAlign=middle;whiteSpace=wrap;rounded=0;" vertex="1" parent="1">
          <mxGeometry x="740" y="1801" width="60" height="30" as="geometry" />
        </mxCell>
        <mxCell id="Dq2hND3aWHUpKWWsGMOl-34" style="edgeStyle=orthogonalEdgeStyle;rounded=0;orthogonalLoop=1;jettySize=auto;html=1;exitX=0.5;exitY=1;exitDx=0;exitDy=0;entryX=0.5;entryY=0;entryDx=0;entryDy=0;" edge="1" parent="1" source="Dq2hND3aWHUpKWWsGMOl-31" target="Dq2hND3aWHUpKWWsGMOl-21">
          <mxGeometry relative="1" as="geometry" />
        </mxCell>
        <mxCell id="Dq2hND3aWHUpKWWsGMOl-35" style="edgeStyle=orthogonalEdgeStyle;rounded=0;orthogonalLoop=1;jettySize=auto;html=1;exitX=0.5;exitY=1;exitDx=0;exitDy=0;entryX=0.5;entryY=0;entryDx=0;entryDy=0;" edge="1" parent="1" source="Dq2hND3aWHUpKWWsGMOl-31" target="Dq2hND3aWHUpKWWsGMOl-20">
          <mxGeometry relative="1" as="geometry" />
        </mxCell>
        <mxCell id="Dq2hND3aWHUpKWWsGMOl-31" value="TodoContext.Provider" style="rounded=1;whiteSpace=wrap;html=1;" vertex="1" parent="1">
          <mxGeometry x="580" y="1570" width="150" height="60" as="geometry" />
        </mxCell>
        <mxCell id="Dq2hND3aWHUpKWWsGMOl-36" value="todos&lt;br&gt;onCreate&lt;br&gt;onUpdate&lt;br&gt;onDelete&lt;br&gt;" style="text;html=1;strokeColor=none;fillColor=none;align=center;verticalAlign=middle;whiteSpace=wrap;rounded=0;" vertex="1" parent="1">
          <mxGeometry x="530" y="1500" width="60" height="30" as="geometry" />
        </mxCell>
        <mxCell id="Dq2hND3aWHUpKWWsGMOl-38" value="TodoContext를 사용하는 &lt;br&gt;영역(Context)" style="text;html=1;strokeColor=none;fillColor=none;align=center;verticalAlign=middle;whiteSpace=wrap;rounded=0;" vertex="1" parent="1">
          <mxGeometry x="360" y="1770" width="150" height="120" as="geometry" />
        </mxCell>
        <mxCell id="Dq2hND3aWHUpKWWsGMOl-40" value="TodoContext" style="text;html=1;strokeColor=default;fillColor=none;align=center;verticalAlign=middle;whiteSpace=wrap;rounded=0;strokeWidth=3;" vertex="1" parent="1">
          <mxGeometry x="525" y="1440" width="70" height="40" as="geometry" />
        </mxCell>
      </root>
    </mxGraphModel>
  </diagram>
</mxfile>
